<?xml version="1.0" encoding="UTF-8" standalone="no"?>
<!-- Created with Inkscape (http://www.inkscape.org/) -->

<svg
   width="117.61859mm"
   height="148.83762mm"
   viewBox="0 0 117.61859 148.83762"
   version="1.1"
   id="svg1"
   xml:space="preserve"
   xmlns:inkscape="http://www.inkscape.org/namespaces/inkscape"
   xmlns:sodipodi="http://sodipodi.sourceforge.net/DTD/sodipodi-0.dtd"
   xmlns="http://www.w3.org/2000/svg"
   xmlns:svg="http://www.w3.org/2000/svg"><sodipodi:namedview
     id="namedview1"
     pagecolor="#ffffff"
     bordercolor="#000000"
     borderopacity="0.25"
     inkscape:showpageshadow="2"
     inkscape:pageopacity="0.0"
     inkscape:pagecheckerboard="0"
     inkscape:deskcolor="#d1d1d1"
     inkscape:document-units="mm"><inkscape:page
       x="0"
       y="4.4822158e-22"
       width="117.61859"
       height="148.83762"
       id="page2"
       margin="0"
       bleed="0" /></sodipodi:namedview><defs
     id="defs1" /><g
     inkscape:label="Layer 1"
     inkscape:groupmode="layer"
     id="layer1"
     transform="translate(-220.74104,-59.251011)"><g
       id="g1"
       transform="matrix(0.26458333,0,0,0.26458333,220.81333,59.302429)"
       style="fill:#ffffff"
       inkscape:export-filename="logo.svg"
       inkscape:export-xdpi="96"
       inkscape:export-ydpi="96"><path
         d="m 0,0 c 3.8630951,0.0209365 7.7262193,0.02969283 11.589355,0.03967285 7.499425,0.0210696 14.998712,0.05492444 22.498047,0.09765625 0.08594,4.5603831 0.0083,7.8579792 -2,11.9999999 -0.66,0 -1.32,0 -2,0 0,0.66 0,1.32 0,2 -0.703828,0.261035 -1.407656,0.52207 -2.132812,0.791016 -17.09797,6.372677 -33.6456583,12.684445 -48.828125,22.958984 -2.039063,1.25 -2.039063,1.25 -4.039063,1.25 0,0.66 0,1.32 0,2 -1.733919,1.60634 -3.538091,3.137529 -5.375,4.625 -0.997734,0.817266 -1.995468,1.634531 -3.023437,2.476563 -2.601563,1.898437 -2.601563,1.898437 -4.601563,1.898437 -0.226875,0.556875 -0.45375,1.11375 -0.6875,1.6875 -1.688,2.974096 -3.779265,5.032589 -6.3125,7.3125 -0.66,0 -1.32,0 -2,0 -0.242343,0.537539 -0.484687,1.075078 -0.734375,1.628906 -1.588274,2.975565 -3.532537,5.580162 -5.515625,8.308594 -6.480652,9.188966 -10.799082,18.681029 -13.207031,29.699219 -0.542969,2.363282 -0.542969,2.363282 -1.542969,4.363282 -1.244981,7.99084 -1.186144,16.01612 -1.185302,24.08325 -0.0022,2.34548 -0.02041,4.69049 -0.03931,7.03589 -0.02933,7.83007 0.215357,15.26376 2.224609,22.88086 0.199805,0.95391 0.39961,1.90781 0.605469,2.89062 2.642756,10.71292 7.805409,20.32388 14.394531,29.10938 0,0.66 0,1.32 0,2 0.66,0 1.32,0 2,0 1.226563,1.32031 1.226563,1.32031 2.625,3.125 10.960503,13.12099 27.727632,20.33004 44.3750003,21.875 21.1405047,1.14716 41.3847547,-3.54714 57.4999997,-17.875 0.943594,-0.89332 0.943594,-0.89332 1.90625,-1.80469 1.59375,-1.32031 1.59375,-1.32031 3.59375,-1.32031 0.309375,-0.61875 0.61875,-1.2375 0.9375,-1.875 0.6875,-1.375 1.375,-2.75 2.0625,-4.125 0.66,0 1.32,0 2,0 0.278438,-0.57234 0.556875,-1.14469 0.84375,-1.73438 1.138988,-2.2318 2.355614,-4.37433 3.65625,-6.51562 0.634219,-1.05961 0.634219,-1.05961 1.28125,-2.14063 0.402188,-0.53109 0.804375,-1.06218 1.21875,-1.60937 0.66,0 1.32,0 2,0 0.104414,-0.54656 0.208828,-1.09313 0.316407,-1.65625 0.839521,-2.87836 2.153119,-5.23083 3.621093,-7.84375 1.754784,-3.13878 3.484679,-6.26814 5.0625,-9.5 0.66,0 1.32,0 2,0 0.08379,-0.67031 0.167578,-1.34063 0.253907,-2.03125 0.963906,-3.83544 2.777529,-7.03912 4.683593,-10.46875 3.572108,-6.57291 6.889306,-13.22589 10.062501,-20 3.34427,-7.12275 6.85603,-14.10759 10.59668,-21.0293 3.5268,-6.580455 6.71776,-13.309715 9.86621,-20.078123 2.62215,-5.605227 5.48241,-11.012331 8.53711,-16.392578 1.10691,-2.019332 2.21159,-4.039892 3.3125,-6.0625 0.51176,-0.939726 1.02352,-1.879453 1.55078,-2.847656 0.56268,-1.034473 0.56268,-1.034473 1.13672,-2.089844 0.66,0 1.32,0 2,0 0.0954,-0.565898 0.19078,-1.131797 0.28906,-1.714844 2.70985,-8.710231 12.9738,-17.319272 19.71094,-23.285156 0.66,0 1.32,0 2,0 0,-0.66 0,-1.32 0,-2 3.46154,-3 3.46154,-3 6,-3 0.33,-0.99 0.66,-1.98 1,-3 2.26065,-1.741227 4.48973,-3.323326 6.875,-4.875 1.01296,-0.666002 1.01296,-0.666002 2.04639,-1.345459 8.83983,-5.700381 17.14607,-9.8670457 27.81177,-9.9406737 1.12855,-0.00961 2.25709,-0.019215 3.41984,-0.029114 1.2115,-0.00425 2.42301,-0.0085 3.67122,-0.012878 1.25658,-0.0057 2.51316,-0.0114 3.80782,-0.017273 2.65874,-0.00944 5.31737,-0.016342 7.97612,-0.019836 3.38111,-0.00547 6.76182,-0.029464 10.14281,-0.057972 3.25355,-0.023287 6.50713,-0.025087 9.76075,-0.029919 1.20138,-0.012347 2.40276,-0.024694 3.64055,-0.037415 10.23688,0.026848 18.50841,2.2041305 27.41023,7.1780397 0.64421,0.353284 1.28842,0.706567 1.95215,1.070557 12.17131,6.754188 22.68751,15.185843 32.61035,24.929443 0.5688,0.551155 1.1376,1.10231 1.72364,1.670166 4.04844,4.055256 4.04844,4.055256 4.62353,6.637207 0.26128,0.930663 0.26128,0.930663 0.52783,1.880127 0.99,0.33 1.98,0.66 3,1 1.60547,1.996094 1.60547,1.996094 3.1875,4.4375 0.52981,0.803086 1.05961,1.606172 1.60547,2.433594 1.20703,2.128906 1.20703,2.128906 1.20703,4.128906 0.66,0 1.32,0 2,0 8.07224,14.156985 14.53694,28.33138 19,44.000001 0.33,0.99 0.66,1.98 1,3 2.58124,17.0402 2.2817,34.2398 2.23572,51.42375 -0.009,4.05667 -0.007,8.11334 -0.007,12.17001 -9.3e-4,6.80707 -0.01,13.61408 -0.0233,20.42113 -0.0157,7.81052 -0.021,15.621 -0.0203,23.43154 6.8e-4,8.40038 -0.006,16.80075 -0.0154,25.20114 -0.002,2.38307 -0.003,4.76614 -0.003,7.14921 -0.005,16.04416 -0.11619,32.04265 -1.05872,48.06501 -0.18576,3.67304 -0.25415,7.34807 -0.31908,11.02493 -0.014,0.75661 -0.0279,1.51323 -0.0423,2.29278 -0.0259,1.41621 -0.0518,2.83242 -0.0777,4.24863 -0.29504,15.15845 -1.03932,30.2611 -2.10648,45.38437 -0.0615,0.90068 -0.12306,1.80136 -0.18646,2.72934 -0.17823,2.57658 -0.36687,5.15216 -0.55963,7.72769 -0.0521,0.75161 -0.10426,1.50323 -0.15798,2.27762 -0.36306,4.6026 -1.12326,8.97544 -2.205,13.46449 -0.64009,2.8069 -0.94395,5.62949 -1.26593,8.48836 -1.76456,12.76554 -5.95277,24.76846 -11.1875,36.5 -0.57091,1.35597 -1.13978,2.7128 -1.70703,4.07031 -4.88182,11.52715 -10.76739,22.25634 -17.29297,32.92969 -0.44118,0.72429 -0.88236,1.44858 -1.33691,2.19482 -1.22957,2.00558 -2.47276,4.00157 -3.72559,5.99268 -0.36988,0.59458 -0.73976,1.18916 -1.12085,1.80176 -0.8836,1.37407 -1.84297,2.69895 -2.81665,4.01074 -0.66,0 -1.32,0 -2,0 -0.25781,0.72574 -0.51562,1.45148 -0.78125,2.19922 -1.27117,2.92126 -2.75891,5.10951 -4.71875,7.61328 -0.60844,0.79019 -1.21687,1.58039 -1.84375,2.39453 -0.54656,0.59168 -1.09312,1.18336 -1.65625,1.79297 -0.66,0 -1.32,0 -2,0 -0.26812,0.63937 -0.53625,1.27875 -0.8125,1.9375 -1.1875,2.0625 -1.1875,2.0625 -4.1875,3.0625 -1.20882,2.00016 -1.20882,2.00016 -2,4 -0.66,0 -1.32,0 -2,0 -0.26812,0.63937 -0.53625,1.27875 -0.8125,1.9375 -1.1875,2.0625 -1.1875,2.0625 -4.1875,3.0625 0,0.66 0,1.32 0,2 -2.08777,1.81401 -4.18063,3.51094 -6.375,5.1875 -0.6405,0.49468 -1.281,0.98935 -1.94092,1.49902 -23.85052,18.31348 -23.85052,18.31348 -30.68408,18.31348 0,0.66 0,1.32 0,2 -25.32715,12.17407 -25.32715,12.17407 -37,16 -0.95519,0.33 -1.91039,0.66 -2.89453,1 -0.96293,0.33 -1.92586,0.66 -2.91797,1 -0.95519,0.33 -1.91039,0.66 -2.89453,1 -10.15515,3.08389 -19.63686,3.31058 -30.15234,3.30078 -1.75287,0.004 -3.50574,0.008 -5.25861,0.013 -3.67148,0.007 -7.34286,0.007 -11.01434,0.002 -3.72376,-0.005 -7.44719,0.002 -11.1709,0.0205 -41.310659,0.20159 -76.115712,-5.33969 -112.776859,-25.29175 -1.693602,-0.92131 -3.392319,-1.83322 -5.091797,-2.74365 -4.5456159,-2.44616 -9.0495288,-4.96219 -13.51562466,-7.55078 -0.82886714,-0.47953 -1.65773434,-0.95906 -2.51171874,-1.45313 -0.5942578,-0.42796 -1.1885156,-0.85593 -1.8007813,-1.29687 0,-0.66 0,-1.32 0,-2 -1.32,-0.33 -2.64,-0.66 -4,-1 0,-0.66 0,-1.32 0,-2 -0.6999609,-0.21914 -1.3999223,-0.43828 -2.1210933,-0.66406 -3.576057,-1.65945 -6.128652,-4.01636 -8.941407,-6.71094 -0.561467,-0.52948 -1.122934,-1.05897 -1.701416,-1.60449 -1.754948,-1.6638 -3.497034,-3.34011 -5.236084,-5.02051 -0.829028,-0.79616 -0.829028,-0.79616 -1.674804,-1.6084 -12.770772,-12.31167 -12.770772,-12.31167 -16.325196,-18.3916 0,-0.66 0,-1.32 0,-2 -0.66,0 -1.32,0 -2,0 -1.656759,-2.3867 -3.187376,-4.76692 -4.6875,-7.25 -0.446982,-0.72929 -0.893964,-1.45858 -1.354492,-2.20996 -1.328151,-2.17481 -2.644746,-4.35621 -3.958008,-6.54004 -0.661289,-1.09313 -1.322578,-2.18625 -2.003906,-3.3125 -14.357387,-24.15382 -25.652859,-52.05398 -28.613281,-80.13672 -0.12511,-1.16094 -0.250219,-2.32187 -0.37912,-3.51799 -1.346041,-13.2588 -1.766335,-26.52989 -2.128693,-39.84529 -0.07765,-2.57628 -0.156268,-5.15254 -0.235839,-7.72876 -0.152735,-4.97798 -0.300386,-9.95607 -0.443848,-14.93433 -0.153316,-5.24111 -0.331064,-10.48051 -0.539063,-15.71972 -0.728768,-18.60581 -0.764197,-37.18796 -0.65625,-55.80469 1.32,0 2.64,0 4,0 0,0.66 0,1.32 0,2 0.66,0 1.32,0 2,0 1.550782,1.57422 1.550782,1.57422 3.3125,3.6875 2.100408,2.48111 4.170465,4.78473 6.5,7.0625 1.987043,2.04381 3.121931,3.63451 4.1875,6.25 0.66,0 1.32,0 2,0 1.691407,1.71484 1.691407,1.71484 3.5625,3.9375 0.620039,0.7309 1.240078,1.4618 1.878907,2.21484 0.514336,0.60973 1.028671,1.21946 1.558593,1.84766 0.33,0.33 0.66,0.66 1,1 0.228301,2.90132 0.384323,5.78065 0.5,8.6875 0.04206,0.95479 0.08411,1.90958 0.127442,2.89331 0.263574,6.39143 0.430917,12.78166 0.552246,19.177 0.559057,28.71783 1.394721,57.32221 8.820312,85.24219 0.283594,1.12277 0.567188,2.24555 0.859375,3.40234 2.203033,7.57552 6.01917,14.38501 9.787842,21.27832 0.646425,1.18288 0.646425,1.18288 1.305908,2.38965 0.393487,0.70915 0.786973,1.41829 1.192383,2.14893 0.854492,1.78076 0.854492,1.78076 0.854492,3.78076 0.66,0 1.32,0 2,0 2.041695,2.90549 3,4.40142 3,8 0.99,0.33 1.98,0.66 3,1 3,3.44444 3,3.44444 3,6 0.99,0.33 1.98,0.66 3,1 1.402344,1.49609 1.402344,1.49609 2.9375,3.4375 10.422675,12.24007 24.3684814,21.04573 38.738282,27.92187 2.349069,1.15936 4.554566,2.34079 6.800781,3.66797 9.402465,5.44155 20.542223,8.38536 30.835937,11.72266 0.894046,0.29366 1.788091,0.58733 2.709229,0.88989 15.68652,4.99123 31.643967,5.51277 47.986082,5.52808 1.28616,0.003 2.57231,0.007 3.89744,0.0101 2.70753,0.006 5.41504,0.008 8.12258,0.007 2.70645,-8e-5 5.41273,0.007 8.11915,0.0205 14.62374,0.0688 29.17579,-0.11702 43.76708,-1.09644 1.18249,-0.0782 2.36497,-0.15651 3.58329,-0.23713 8.85991,-0.66163 17.04653,-2.13549 25.50265,-4.87224 0.82371,-0.2475 1.64742,-0.495 2.4961,-0.75 2.19549,-0.68878 4.34551,-1.45283 6.5039,-2.25 0.94617,-0.33516 1.89235,-0.67031 2.86719,-1.01563 7.16285,-2.62696 13.92435,-5.75197 20.66431,-9.30542 3.47422,-1.80606 6.56976,-3.16912 10.4685,-3.67895 0,-0.66 0,-1.32 0,-2 2.23047,-1.65625 2.23047,-1.65625 5.1875,-3.5 0.96293,-0.60844 1.92586,-1.21688 2.91797,-1.84375 2.89453,-1.65625 2.89453,-1.65625 5.69531,-2.6875 1.08862,-0.47953 1.08862,-0.47953 2.19922,-0.96875 0.33,-0.99 0.66,-1.98 1,-3 1.41769,-0.95835 2.83993,-1.91091 4.28858,-2.82178 3.09553,-2.1311 5.64314,-4.82275 8.27392,-7.49072 0.55108,-0.54334 1.10215,-1.08668 1.66992,-1.64649 2.81738,-2.83074 5.28128,-5.66347 7.54493,-8.95898 0.73347,-1.01707 1.46695,-2.03414 2.22265,-3.08203 0.66,0 1.32,0 2,0 0.24364,-0.69223 0.48727,-1.38445 0.73828,-2.09766 1.46772,-3.37619 3.4022,-6.30013 5.44922,-9.33984 4.52695,-6.92149 8.45015,-13.99529 11.8125,-21.5625 0.29649,-0.65436 0.59297,-1.30872 0.89844,-1.98291 9.28526,-21.00592 11.10538,-44.24253 12.91406,-66.89209 0.0635,-0.78912 0.12706,-1.57824 0.19251,-2.39127 1.73415,-18.44846 1.73415,-18.44846 -0.005,-36.73373 -36.33631,-0.11687 -72.66193,-0.0281 -108.99538,0.46441 -28.37476,0.38401 -56.74544,0.647 -85.12302,0.65897 -2.48456,0.002 -4.96912,0.005 -7.45368,0.009 -3.87537,0.006 -7.7507,0.006 -11.62607,0.002 -1.40857,-9.9e-4 -2.81714,-4.4e-4 -4.225709,0.002 -20.249836,0.027 -20.249836,0.027 -24.576142,-2.13616 1,-3 1,-3 4.175782,-4.72656 1.37633,-0.6384 2.755432,-1.27084 4.136718,-1.89844 7.695681,-3.66869 14.051252,-7.9907 20.687501,-13.375 0.9191,-0.71672 1.83821,-1.43344 2.78516,-2.17188 4.33406,-3.39576 8.42423,-6.8209 12.21484,-10.82812 1.62837,-1.70411 3.2877,-3.38026 5,-5 0.66,0 1.32,0 2,0 0,-0.99 0,-1.98 0,-3 1.66216,-1.33896 3.32964,-2.6713 5,-4 1.34217,-1.99408 2.67721,-3.99301 4,-6 0.66,0 1.32,0 2,0 0,-0.66 0,-1.32 0,-2 6.77729,-4.51819 15.19109,-4.35341 23.10547,-4.59766 1.04167,-0.0392 2.08334,-0.0784 3.15657,-0.11876 3.30826,-0.12314 6.61677,-0.23515 9.92546,-0.34608 4.34779,-0.15399 8.6954,-0.31259 13.04297,-0.47266 1.04601,-0.0377 2.09202,-0.0754 3.16972,-0.11425 6.47736,-0.24206 12.91801,-0.63096 19.37984,-1.13843 5.62502,-0.37063 11.25893,-0.43405 16.89377,-0.54319 14.45204,-0.29716 28.84752,-1.05641 43.2637,-2.10647 1.30296,-0.0923 1.30296,-0.0923 2.63224,-0.18646 9.57037,-0.68517 18.99807,-1.53013 28.43026,-3.37604 0,-0.66 0,-1.32 0,-2 1.66667,-1 3.33334,-2 5,-3 3.83591,-3.44445 3.83591,-3.44445 6,-8 0.66,0 1.32,0 2,0 0.12407,-0.72123 0.24815,-1.44246 0.37598,-2.18555 0.619,-2.7918 1.52571,-5.20358 2.6084,-7.8457 2.27458,-6.13685 2.88288,-11.97003 3.26562,-18.46875 0.0774,-1.05059 0.15469,-2.10117 0.23438,-3.18359 2.20739,-31.88901 -0.11978,-61.56119 -20.48438,-87.316411 -0.66,-0.33 -1.32,-0.66 -2,-1 0,-0.66 0,-1.32 0,-2 -0.83531,-0.37125 -0.83531,-0.37125 -1.6875,-0.75 -2.3125,-1.25 -2.3125,-1.25 -4.5,-3.0625 -16.87177,-13.122488 -36.49446,-15.121469 -57.18506,-12.937012 -3.65818,0.582823 -7.13585,1.525483 -10.62744,2.749512 -0.68449,0.228164 -1.36898,0.456328 -2.07422,0.691406 -3.24666,1.232463 -5.94967,2.971644 -8.73828,4.996094 -3.1875,2.3125 -3.1875,2.3125 -5.1875,2.3125 -0.33,0.99 -0.66,1.98 -1,3 -0.66,0 -1.32,0 -2,0 -0.33,0.99 -0.66,1.98 -1,3 -0.66,0 -1.32,0 -2,0 -0.25781,0.71543 -0.51562,1.430859 -0.78125,2.167969 -1.2926,3.003632 -2.84652,5.467085 -4.71875,8.144531 -0.60844,0.883008 -1.21687,1.766011 -1.84375,2.675781 -0.54656,0.66387 -1.09312,1.32773 -1.65625,2.01172 -0.66,0 -1.32,0 -2,0 -0.0967,0.54914 -0.19336,1.09828 -0.29297,1.66406 -0.89362,2.95241 -2.34098,5.1184 -4.01953,7.71094 -8.03228,12.7047 -15.04593,26.09169 -21.67749,39.573 -3.21628,6.52787 -6.61263,12.95827 -10.00537,19.39575 -2.65222,5.0425 -5.24063,10.106 -7.75464,15.21875 -2.62796,5.31238 -5.52224,10.40052 -8.55859,15.48828 -1.73973,3.03348 -3.28881,6.11666 -4.81641,9.26172 -1.94272,3.96789 -3.99849,7.48374 -6.66797,10.99219 -1.3725,1.92772 -2.46614,3.92142 -3.58203,6.00781 -2.79124,5.13943 -5.88739,10.1779 -9.625,14.6875 -0.66,0 -1.32,0 -2,0 -0.21269,0.70125 -0.42539,1.4025 -0.64453,2.125 -1.71556,3.63877 -4.19063,6.11759 -7.04297,8.875 -0.80703,0.79229 -0.80703,0.79229 -1.63037,1.60059 -9.711951,9.39941 -9.711951,9.39941 -13.682131,9.39941 0,0.66 0,1.32 0,2 -2.411505,1.26084 -4.828571,2.50847 -7.25,3.75 -0.662578,0.34805 -1.325156,0.69609 -2.007812,1.05469 -11.442329,5.82911 -22.020241,7.85849 -34.777344,7.9375 -1.529172,0.018 -3.058342,0.0362 -4.587509,0.0547 -3.191213,0.0328 -6.382011,0.0483 -9.57338,0.0542 -3.23311,0.009 -6.463019,0.0502 -9.695312,0.12305 -33.658394,0.74549 -33.658394,0.74549 -48.174057,-9.64403 -3.479538,-2.3923 -7.225518,-4.32118 -10.934586,-6.33009 -1.53012,-0.87988 -3.054373,-1.77044 -4.5625,-2.6875 -0.661289,-0.39574 -1.322578,-0.79149 -2.003906,-1.19922 -0.709629,-0.55107 -0.709629,-0.55107 -1.433594,-1.11328 0,-0.66 0,-1.32 0,-2 -0.572343,-0.25781 -1.144687,-0.51563 -1.734375,-0.78125 -2.476915,-1.33241 -4.399741,-2.86931 -6.515625,-4.71875 -0.706406,-0.60844 -1.412812,-1.21688 -2.140625,-1.84375 -1.609375,-1.65625 -1.609375,-1.65625 -1.609375,-3.65625 -0.99,-0.33 -1.98,-0.66 -3,-1 0,-0.66 0,-1.32 0,-2 -0.66,0 -1.32,0 -2,0 -4,-4.47059 -4,-4.47059 -4,-7 -0.66,0 -1.32,0 -2,0 -1.72021,-2.46943 -3.313627,-4.93261 -4.875,-7.5 -0.434414,-0.69609 -0.868828,-1.39219 -1.316406,-2.10938 -18.99982,-30.81052 -21.17526,-63.0726 -21.069336,-98.23803 0.01146,-3.84104 0.0048,-7.6818 -0.0071,-11.52283 -0.0073,-3.00894 -0.0049,-6.01781 2.56e-4,-9.02675 0.0013,-1.4155 -2.3e-4,-2.83101 -0.005,-4.2465 -0.03083,-11.79713 1.18467,-22.969805 4.27259,-34.356511 0.28875,-1.19625 0.5775,-2.3925 0.875,-3.625 1.239499,-4.977513 2.704558,-9.890491 4.132813,-14.816406 0.856366,-3.071457 1.598478,-6.137899 2.304687,-9.246094 1.345854,-5.494335 3.182496,-10.756809 5.125,-16.0625 0.288509,-0.792371 0.577017,-1.584741 0.874268,-2.401123 5.714515,-15.2936485 5.714515,-15.2936485 12.688232,-18.8488771 6.16383,-2.1444261 12.251703,-2.6545966 18.738282,-3.1171875 1.753444,-0.12675613 1.753444,-0.12675613 3.542312,-0.256073 C -29.764562,-0.20136466 -14.891177,-0.08966695 0,0 Z"
         fill="#050505"
         transform="translate(96.912598,-0.1373291)"
         id="path1"
         style="fill:#ffffff" /><path
         d="M 0,0 C 2.1610124,0.01070892 4.3211906,5.243e-5 6.4821777,-0.01269531 17.743057,-0.0259832 28.431116,0.89539086 38.980225,5.0732422 c 0.677483,0.2606323 1.354965,0.5212646 2.052978,0.7897949 5.195513,2.0585758 10.6782,4.3788829 14.697022,8.3977049 0.25,3.4375 0.25,3.4375 0,7 -3.835425,2.55695 -5.659026,2.040457 -10.1875,1.625 -1.908457,-0.166289 -1.908457,-0.166289 -3.855469,-0.335937 -0.97582,-0.09539 -1.951641,-0.190782 -2.957031,-0.289063 -0.129551,0.926192 -0.129551,0.926192 -0.261719,1.871094 -1.086401,6.548306 -3.197017,11.533168 -6.738281,17.128906 -0.66,0 -1.32,0 -2,0 -0.33,0.99 -0.66,1.98 -1,3 -5.293036,3.719431 -9.575238,4.421296 -16,4 C 6.3390736,47.129565 2.2523093,44.73598 -1.7619629,39.620117 -6.9447204,31.51031 -7.8643372,23.724185 -7.2697754,14.260742 -8.1690173,14.4425 -8.1690173,14.4425 -9.0864258,14.62793 c -2.7472772,0.551204 -5.4964942,1.092075 -8.2458492,1.632812 -1.414424,0.286172 -1.414424,0.286172 -2.857422,0.578125 -5.10524,0.996144 -9.876218,1.822704 -15.080078,1.421875 -2,-1.625 -2,-1.625 -3,-4 -0.125,-3 -0.125,-3 1,-5.9999998 C -26.012362,0.46714864 -13.27238,-0.07806399 0,0 Z"
         fill="#0e0e0e"
         transform="translate(307.26978,370.73926)"
         id="path2"
         style="fill:#ffffff" /><path
         d="M 0,0 C 1.2026953,-0.01224609 2.4053906,-0.02449219 3.6445313,-0.03710938 15.824647,-0.0569467 34.764319,1.0568403 44.125,10.125 c 1,2.0625 1,2.0625 0.8125,4.125 -0.8125,1.9375 -0.8125,1.9375 -2.8125,4.9375 -2.626971,0.221374 -5.00894,0.28162 -7.625,0.1875 -0.706406,-0.01354 -1.412813,-0.02707 -2.140625,-0.04102 -1.745116,-0.03537 -3.489841,-0.08918 -5.234375,-0.146484 -0.164355,0.852715 -0.164355,0.852715 -0.332031,1.722656 -1.047351,5.100512 -2.460687,9.561786 -4.667969,14.277344 -0.66,0 -1.32,0 -2,0 -0.268125,0.639375 -0.53625,1.27875 -0.8125,1.9375 -1.1875,2.0625 -1.1875,2.0625 -4.1875,3.0625 0,0.66 0,1.32 0,2 -6.9350904,2.920038 -12.1462001,4.190989 -19.4375,1.5 -1.175625,-0.495 -2.35125,-0.99 -3.5625,-1.5 0,-0.66 0,-1.32 0,-2 -0.99,0 -1.98,0 -3,0 -4.448871,-5.08346 -5.923767,-9.331444 -6.8125,-15.9375 -0.120527,-0.779238 -0.241055,-1.558477 -0.365234,-2.361328 -0.291083,-1.897862 -0.559118,-3.799236 -0.822266,-5.701172 -1.610684,0.342246 -1.610684,0.342246 -3.253906,0.691406 -1.436076,0.29097 -2.872281,0.5813 -4.308594,0.871094 -0.704473,0.151465 -1.408945,0.30293 -2.134766,0.458984 -5.278399,1.04595 -10.316762,1.471502 -15.302734,-1.021484 0,-2.97 0,-5.94 0,-9 C -30.363123,0.50427611 -15.177022,0.00808148 0,0 Z"
         fill="#0e0e0e"
         transform="translate(164.875,371.8125)"
         id="path3"
         style="fill:#ffffff" /><path
         d="M 0,0 C 0.99,0.33 1.98,0.66 3,1 2.67,1.66 2.34,2.32 2,3 1.67,3 1.34,3 1,3 0.67,13.89 0.34,24.78 0,36 -0.33,36 -0.66,36 -1,36 -1.024651,31.033777 -1.042836,26.067588 -1.054932,21.101318 -1.059972,19.410557 -1.066804,17.7198 -1.07544,16.029053 -1.087519,13.603993 -1.093232,11.178991 -1.097657,8.7539063 -1.102817,7.9934853 -1.10798,7.2330643 -1.113297,6.4496002 -1.1134924,4.6326743 -1.0619728,2.8158687 -1,1 -0.67,0.67 -0.34,0.34 0,0 Z"
         fill="#e4e4e4"
         transform="translate(6,245)"
         id="path4"
         style="fill:#ffffff" /><path
         d="M 0,0 C 0.66,0.33 1.32,0.66 2,1 0.625,3 0.625,3 -1,5 -1.66,5 -2.32,5 -3,5 -3.433125,5.928125 -3.433125,5.928125 -3.875,6.875 -5,9 -5,9 -7,11 -7.99,10.34 -8.98,9.68 -10,9 -9.3619141,8.5178906 -8.7238281,8.0357813 -8.0664063,7.5390625 -7.2401172,6.9074219 -6.4138281,6.2757812 -5.5625,5.625 -4.7387891,4.9985156 -3.9150781,4.3720312 -3.0664063,3.7265625 -0.91471908,2.162461 -0.91471908,2.162461 0,0 Z"
         fill="#4a4a4a"
         transform="translate(212,259)"
         id="path5"
         style="fill:#ffffff" /><path
         d="M 0,0 C 0.99,0.33 1.98,0.66 3,1 2.67,1.66 2.34,2.32 2,3 1.67,3 1.34,3 1,3 0.67,6.3 0.34,9.6 0,13 -0.33,13 -0.66,13 -1,13 -1.0268655,11.020906 -1.0463337,9.0417103 -1.0625,7.0625 -1.0741016,5.9603516 -1.0857031,4.8582031 -1.0976562,3.7226563 -1,1 -1,1 0,0 Z"
         fill="#c1c1c1"
         transform="translate(6,245)"
         id="path6"
         style="fill:#ffffff" /><path
         d="M 0,0 C 0.66,0.33 1.32,0.66 2,1 0.02,3.97 0.02,3.97 -2,7 -3.32,6.34 -4.64,5.68 -6,5 -5.195625,4.731875 -4.39125,4.46375 -3.5625,4.1875 -2.716875,3.795625 -1.87125,3.40375 -1,3 -0.67,2.01 -0.34,1.02 0,0 Z"
         fill="#6c6c6c"
         transform="translate(356,455)"
         id="path7"
         style="fill:#ffffff" /></g></g></svg>
