<?xml version="1.0" encoding="UTF-8"?>
<svg version="1.1" xmlns="http://www.w3.org/2000/svg" width="444" height="562">
<path d="M0 0 C3.86309508 0.0209365 7.72621931 0.02969283 11.58935547 0.03967285 C19.08877977 0.06074245 26.58806671 0.09459729 34.08740234 0.1373291 C34.17334596 4.69771219 34.09565486 7.99530828 32.08740234 12.1373291 C31.42740234 12.1373291 30.76740234 12.1373291 30.08740234 12.1373291 C30.08740234 12.7973291 30.08740234 13.4573291 30.08740234 14.1373291 C29.38357422 14.39836426 28.67974609 14.65939941 27.95458984 14.92834473 C10.85661951 21.30102166 -5.69106835 27.61278963 -20.87353516 37.8873291 C-22.91259766 39.1373291 -22.91259766 39.1373291 -24.91259766 39.1373291 C-24.91259766 39.7973291 -24.91259766 40.4573291 -24.91259766 41.1373291 C-26.64651717 42.74366925 -28.45068865 44.2748578 -30.28759766 45.7623291 C-31.28533203 46.57959473 -32.28306641 47.39686035 -33.31103516 48.2388916 C-35.91259766 50.1373291 -35.91259766 50.1373291 -37.91259766 50.1373291 C-38.13947266 50.6942041 -38.36634766 51.2510791 -38.60009766 51.8248291 C-40.28809802 54.79892498 -42.37936282 56.85741775 -44.91259766 59.1373291 C-45.57259766 59.1373291 -46.23259766 59.1373291 -46.91259766 59.1373291 C-47.15494141 59.67486816 -47.39728516 60.21240723 -47.64697266 60.76623535 C-49.2352475 63.74179963 -51.17950954 66.34639665 -53.16259766 69.0748291 C-59.64325046 78.26379496 -63.96168015 87.75585807 -66.36962891 98.77404785 C-66.91259766 101.1373291 -66.91259766 101.1373291 -67.91259766 103.1373291 C-69.1575793 111.12816873 -69.09874238 119.15345068 -69.09790039 127.22058105 C-69.10008947 129.56606131 -69.11830639 131.9110721 -69.13720703 134.25646973 C-69.16653956 142.08654283 -68.92185036 149.52023386 -66.91259766 157.1373291 C-66.71279297 158.09123535 -66.51298828 159.0451416 -66.30712891 160.0279541 C-63.66437311 170.7408702 -58.50172038 180.35183214 -51.91259766 189.1373291 C-51.91259766 189.7973291 -51.91259766 190.4573291 -51.91259766 191.1373291 C-51.25259766 191.1373291 -50.59259766 191.1373291 -49.91259766 191.1373291 C-48.68603516 192.4576416 -48.68603516 192.4576416 -47.28759766 194.2623291 C-36.32709496 207.3833155 -19.55996616 214.59236998 -2.91259766 216.1373291 C18.22790673 217.28448825 38.47215714 212.5901947 54.58740234 198.2623291 C55.53099609 197.36900879 55.53099609 197.36900879 56.49365234 196.4576416 C58.08740234 195.1373291 58.08740234 195.1373291 60.08740234 195.1373291 C60.39677734 194.5185791 60.70615234 193.8998291 61.02490234 193.2623291 C61.71240234 191.8873291 62.39990234 190.5123291 63.08740234 189.1373291 C63.74740234 189.1373291 64.40740234 189.1373291 65.08740234 189.1373291 C65.36583984 188.56498535 65.64427734 187.9926416 65.93115234 187.4029541 C67.07014027 185.17115344 68.28676617 183.02862036 69.58740234 180.8873291 C70.22162109 179.82771973 70.22162109 179.82771973 70.86865234 178.7467041 C71.27083984 178.21561035 71.67302734 177.6845166 72.08740234 177.1373291 C72.74740234 177.1373291 73.40740234 177.1373291 74.08740234 177.1373291 C74.19181641 176.5907666 74.29623047 176.0442041 74.40380859 175.4810791 C75.24333028 172.60271905 76.55692782 170.25025198 78.02490234 167.6373291 C79.77968606 164.49855135 81.50958102 161.369195 83.08740234 158.1373291 C83.74740234 158.1373291 84.40740234 158.1373291 85.08740234 158.1373291 C85.17119141 157.4670166 85.25498047 156.7967041 85.34130859 156.1060791 C86.30521527 152.27063891 88.1188384 149.06695849 90.02490234 145.6373291 C93.59700967 139.0644208 96.91420812 132.41143859 100.08740234 125.6373291 C103.43166791 118.51457817 106.94342917 111.52973894 110.68408203 104.60803223 C114.21088315 98.02757542 117.40184264 91.29831494 120.55029297 84.52990723 C123.17244326 78.92468048 126.03270225 73.51757613 129.08740234 68.1373291 C130.19431301 66.11799749 131.2989893 64.09743679 132.39990234 62.0748291 C132.91166016 61.13510254 133.42341797 60.19537598 133.95068359 59.22717285 C134.51335937 58.1927002 134.51335937 58.1927002 135.08740234 57.1373291 C135.74740234 57.1373291 136.40740234 57.1373291 137.08740234 57.1373291 C137.18279297 56.57143066 137.27818359 56.00553223 137.37646484 55.42248535 C140.08631473 46.71225358 150.35026364 38.10321287 157.08740234 32.1373291 C157.74740234 32.1373291 158.40740234 32.1373291 159.08740234 32.1373291 C159.08740234 31.4773291 159.08740234 30.8173291 159.08740234 30.1373291 C162.54894081 27.1373291 162.54894081 27.1373291 165.08740234 27.1373291 C165.41740234 26.1473291 165.74740234 25.1573291 166.08740234 24.1373291 C168.34804605 22.39610222 170.57712695 20.81400315 172.96240234 19.2623291 C173.97536377 18.5963269 173.97536377 18.5963269 175.00878906 17.91687012 C183.84861649 12.21648909 192.15486085 8.04982434 202.82055664 7.97619629 C203.94910568 7.96658875 205.07765472 7.9569812 206.24040222 7.94708252 C207.45190445 7.94283264 208.66340668 7.93858276 209.91162109 7.9342041 C211.16820023 7.92850403 212.42477936 7.92280396 213.71943665 7.91693115 C216.37818008 7.90749052 219.03681093 7.90058908 221.69555664 7.89709473 C225.07667107 7.89162907 228.45737895 7.86763092 231.83836651 7.83912277 C235.09191979 7.8158362 238.34549622 7.81403585 241.59912109 7.8092041 C242.80050217 7.7968573 244.00188324 7.7845105 245.2396698 7.77178955 C255.47655316 7.79863708 263.74808382 9.97591997 272.64990234 14.9498291 C273.29411133 15.30311279 273.93832031 15.65639648 274.60205078 16.02038574 C286.77335749 22.77457367 297.28955596 31.20622884 307.21240234 40.9498291 C307.78120117 41.50098389 308.35 42.05213867 308.93603516 42.61999512 C312.98448183 46.6752511 312.98448183 46.6752511 313.55957031 49.25720215 C313.82084717 50.18786499 313.82084717 50.18786499 314.08740234 51.1373291 C315.07740234 51.4673291 316.06740234 51.7973291 317.08740234 52.1373291 C318.69287109 54.13342285 318.69287109 54.13342285 320.27490234 56.5748291 C320.80470703 57.37791504 321.33451172 58.18100098 321.88037109 59.00842285 C323.08740234 61.1373291 323.08740234 61.1373291 323.08740234 63.1373291 C323.74740234 63.1373291 324.40740234 63.1373291 325.08740234 63.1373291 C333.15963577 77.29431424 339.62433562 91.46870859 344.08740234 107.1373291 C344.41740234 108.1273291 344.74740234 109.1173291 345.08740234 110.1373291 C347.66863545 127.17753292 347.3690992 144.37712936 347.32312179 161.56107974 C347.31419025 165.61774938 347.31610164 169.67441689 347.31648254 173.73109436 C347.31555215 180.53815665 347.30695511 187.34517381 347.29321289 194.15222168 C347.2775006 201.96274463 347.27221502 209.77321829 347.27294844 217.58375591 C347.27363007 225.98414462 347.26665543 234.38451496 347.25750184 242.78489804 C347.2553958 245.16796965 347.25466416 247.55103819 347.25426292 249.93411064 C347.2490759 265.9782653 347.13806566 281.97676094 346.19554043 297.99911594 C346.00977962 301.67216229 345.94139103 305.34718682 345.87646484 309.02404785 C345.86249224 309.78066491 345.84851963 310.53728197 345.83412361 311.31682682 C345.80820064 312.73303781 345.78228603 314.14924894 345.75637817 315.56546021 C345.4613377 330.72390667 344.71705997 345.82656254 343.64990234 360.9498291 C343.58836975 361.85051117 343.52683716 362.75119324 343.46343994 363.6791687 C343.28520695 366.25574902 343.09657389 368.83133048 342.90380859 371.40686035 C342.85167709 372.15847443 342.79954559 372.9100885 342.74583435 373.68447876 C342.38277003 378.28707573 341.62257194 382.65991673 340.54083252 387.14897156 C339.90073984 389.95587143 339.59687844 392.7784644 339.27490234 395.6373291 C337.51033503 408.40287079 333.32213444 420.40579251 328.08740234 432.1373291 C327.51648555 433.49329885 326.94761817 434.85013259 326.38037109 436.2076416 C321.49855492 447.73478866 315.61297793 458.46398402 309.08740234 469.1373291 C308.6462207 469.86162109 308.20503906 470.58591309 307.75048828 471.33215332 C306.52092093 473.33772871 305.2777329 475.33371879 304.02490234 477.3248291 C303.65502197 477.91940918 303.2851416 478.51398926 302.90405273 479.12658691 C302.02045047 480.5006642 301.06108008 481.82553909 300.08740234 483.1373291 C299.42740234 483.1373291 298.76740234 483.1373291 298.08740234 483.1373291 C297.82958984 483.86307129 297.57177734 484.58881348 297.30615234 485.33654785 C296.03497735 488.25780577 294.54723833 490.44605559 292.58740234 492.9498291 C291.97896484 493.74002441 291.37052734 494.53021973 290.74365234 495.34436035 C290.19708984 495.93604004 289.65052734 496.52771973 289.08740234 497.1373291 C288.42740234 497.1373291 287.76740234 497.1373291 287.08740234 497.1373291 C286.81927734 497.7767041 286.55115234 498.4160791 286.27490234 499.0748291 C285.08740234 501.1373291 285.08740234 501.1373291 282.08740234 502.1373291 C280.87858138 504.13749376 280.87858138 504.13749376 280.08740234 506.1373291 C279.42740234 506.1373291 278.76740234 506.1373291 278.08740234 506.1373291 C277.81927734 506.7767041 277.55115234 507.4160791 277.27490234 508.0748291 C276.08740234 510.1373291 276.08740234 510.1373291 273.08740234 511.1373291 C273.08740234 511.7973291 273.08740234 512.4573291 273.08740234 513.1373291 C270.999633 514.95134195 268.90677217 516.64826983 266.71240234 518.3248291 C266.07189941 518.81950684 265.43139648 519.31418457 264.77148438 519.82385254 C240.92095864 538.1373291 240.92095864 538.1373291 234.08740234 538.1373291 C234.08740234 538.7973291 234.08740234 539.4573291 234.08740234 540.1373291 C208.76024888 552.31139611 208.76024888 552.31139611 197.08740234 556.1373291 C196.13220703 556.4673291 195.17701172 556.7973291 194.19287109 557.1373291 C193.22994141 557.4673291 192.26701172 557.7973291 191.27490234 558.1373291 C190.31970703 558.4673291 189.36451172 558.7973291 188.38037109 559.1373291 C178.22522037 562.22121829 168.74351419 562.44790733 158.22802734 562.43811035 C156.47515768 562.44200772 154.72228894 562.44634449 152.96942139 562.45109558 C149.29794253 562.45853631 145.62655982 562.45828519 141.95507812 562.45300293 C138.23132176 562.44839282 134.50789352 562.45520776 130.78417969 562.47351074 C89.47352397 562.67510406 54.66847117 557.1338202 18.00732422 537.1817627 C16.31372159 536.26044631 14.61500466 535.34854463 12.91552734 534.43811035 C8.3699111 531.99195246 3.86599819 529.47591818 -0.60009766 526.8873291 C-1.42896484 526.40779785 -2.25783203 525.9282666 -3.11181641 525.4342041 C-3.70607422 525.00623535 -4.30033203 524.5782666 -4.91259766 524.1373291 C-4.91259766 523.4773291 -4.91259766 522.8173291 -4.91259766 522.1373291 C-6.23259766 521.8073291 -7.55259766 521.4773291 -8.91259766 521.1373291 C-8.91259766 520.4773291 -8.91259766 519.8173291 -8.91259766 519.1373291 C-9.61255859 518.91818848 -10.31251953 518.69904785 -11.03369141 518.4732666 C-14.60974766 516.81382123 -17.16234306 514.4569079 -19.97509766 511.7623291 C-20.53656494 511.23284668 -21.09803223 510.70336426 -21.67651367 510.15783691 C-23.43146196 508.49403881 -25.1735476 506.81772654 -26.91259766 505.1373291 C-27.74162598 504.34117187 -27.74162598 504.34117187 -28.58740234 503.52893066 C-41.35817435 491.2172637 -41.35817435 491.2172637 -44.91259766 485.1373291 C-44.91259766 484.4773291 -44.91259766 483.8173291 -44.91259766 483.1373291 C-45.57259766 483.1373291 -46.23259766 483.1373291 -46.91259766 483.1373291 C-48.56935711 480.75062627 -50.09997387 478.37040817 -51.60009766 475.8873291 C-52.04708008 475.15804199 -52.4940625 474.42875488 -52.95458984 473.67736816 C-54.28274062 471.50255702 -55.59933646 469.3211562 -56.91259766 467.1373291 C-57.57388672 466.0442041 -58.23517578 464.9510791 -58.91650391 463.8248291 C-73.27389128 439.67101411 -84.5693634 411.7708504 -87.52978516 383.68811035 C-87.65489471 382.52717361 -87.78000427 381.36623688 -87.90890503 380.17012024 C-89.25494598 366.91132258 -89.67523959 353.64022606 -90.03759766 340.3248291 C-90.1152437 337.74854651 -90.1938663 335.17229318 -90.2734375 332.59606934 C-90.4261723 327.61808783 -90.57382346 322.64000003 -90.71728516 317.66174316 C-90.87060117 312.42062778 -91.04834908 307.18122607 -91.25634766 301.9420166 C-91.98511613 283.33620927 -92.02054483 264.75406446 -91.91259766 246.1373291 C-90.59259766 246.1373291 -89.27259766 246.1373291 -87.91259766 246.1373291 C-87.91259766 246.7973291 -87.91259766 247.4573291 -87.91259766 248.1373291 C-87.25259766 248.1373291 -86.59259766 248.1373291 -85.91259766 248.1373291 C-84.36181641 249.71154785 -84.36181641 249.71154785 -82.60009766 251.8248291 C-80.4996902 254.30593541 -78.4296329 256.60956131 -76.10009766 258.8873291 C-74.11305515 260.93114425 -72.97816717 262.5218403 -71.91259766 265.1373291 C-71.25259766 265.1373291 -70.59259766 265.1373291 -69.91259766 265.1373291 C-68.22119141 266.85217285 -68.22119141 266.85217285 -66.35009766 269.0748291 C-65.73005859 269.80572754 -65.11001953 270.53662598 -64.47119141 271.28967285 C-63.95685547 271.89939941 -63.44251953 272.50912598 -62.91259766 273.1373291 C-62.58259766 273.4673291 -62.25259766 273.7973291 -61.91259766 274.1373291 C-61.68429692 277.03865101 -61.52827493 279.91797958 -61.41259766 282.8248291 C-61.37054199 283.77962158 -61.32848633 284.73441406 -61.28515625 285.71813965 C-61.02158176 292.10957432 -60.8542393 298.49980087 -60.73291016 304.8951416 C-60.1738526 333.6129667 -59.33818947 362.2173506 -51.91259766 390.1373291 C-51.62900391 391.26010254 -51.34541016 392.38287598 -51.05322266 393.53967285 C-48.85019045 401.11519396 -45.03405294 407.9246751 -41.26538086 414.81799316 C-40.6189563 416.00086914 -40.6189563 416.00086914 -39.95947266 417.2076416 C-39.56598633 417.91678711 -39.1725 418.62593262 -38.76708984 419.35656738 C-37.91259766 421.1373291 -37.91259766 421.1373291 -37.91259766 423.1373291 C-37.25259766 423.1373291 -36.59259766 423.1373291 -35.91259766 423.1373291 C-33.87090281 426.04281792 -32.91259766 427.53874956 -32.91259766 431.1373291 C-31.92259766 431.4673291 -30.93259766 431.7973291 -29.91259766 432.1373291 C-26.91259766 435.58177355 -26.91259766 435.58177355 -26.91259766 438.1373291 C-25.92259766 438.4673291 -24.93259766 438.7973291 -23.91259766 439.1373291 C-22.51025391 440.63342285 -22.51025391 440.63342285 -20.97509766 442.5748291 C-10.55242308 454.81490282 3.39338343 463.62056279 17.76318359 470.4967041 C20.11225306 471.65605683 22.3177499 472.83749216 24.56396484 474.16467285 C33.96643046 479.60622146 45.10618801 482.55003357 55.39990234 485.8873291 C56.29394775 486.18099365 57.18799316 486.4746582 58.10913086 486.77722168 C73.79565093 491.76845275 89.75309841 492.28998703 106.09521484 492.30529785 C107.38136688 492.30862625 108.66751892 492.31195465 109.99264526 492.31538391 C112.70018349 492.32131064 115.40769014 492.323231 118.11523438 492.32263184 C120.82168373 492.32255136 123.52796098 492.32937934 126.234375 492.34313965 C140.85811756 492.41190893 155.41017164 492.22611584 170.00146484 491.2467041 C171.18394806 491.16844894 172.36643127 491.09019379 173.58474731 491.00956726 C182.44466388 490.34794257 190.63128048 488.87407651 199.08740234 486.1373291 C199.91111328 485.8898291 200.73482422 485.6423291 201.58349609 485.3873291 C203.77898734 484.69854753 205.92901241 483.93450448 208.08740234 483.1373291 C209.03357422 482.80217285 209.97974609 482.4670166 210.95458984 482.1217041 C218.11744335 479.49474071 224.87893621 476.36972797 231.61889648 472.81628418 C235.09311532 471.01021579 238.18865877 469.6471648 242.08740234 469.1373291 C242.08740234 468.4773291 242.08740234 467.8173291 242.08740234 467.1373291 C244.31787109 465.4810791 244.31787109 465.4810791 247.27490234 463.6373291 C248.23783203 463.0288916 249.20076172 462.4204541 250.19287109 461.7935791 C253.08740234 460.1373291 253.08740234 460.1373291 255.88818359 459.1060791 C256.97679687 458.62654785 256.97679687 458.62654785 258.08740234 458.1373291 C258.41740234 457.1473291 258.74740234 456.1573291 259.08740234 455.1373291 C260.50508637 454.17898305 261.92732782 453.22641505 263.37597656 452.31555176 C266.47150512 450.18445036 269.01912045 447.49279519 271.64990234 444.8248291 C272.20097656 444.28148926 272.75205078 443.73814941 273.31982422 443.17834473 C276.13719919 440.34760142 278.60110375 437.51487191 280.86474609 434.21936035 C281.59822266 433.20229004 282.33169922 432.18521973 283.08740234 431.1373291 C283.74740234 431.1373291 284.40740234 431.1373291 285.08740234 431.1373291 C285.33103516 430.44510254 285.57466797 429.75287598 285.82568359 429.03967285 C287.29339539 425.66348131 289.22788162 422.7395393 291.27490234 419.6998291 C295.80185396 412.77834397 299.72505421 405.70454035 303.08740234 398.1373291 C303.38388672 397.48296875 303.68037109 396.8286084 303.98583984 396.15441895 C313.27109961 375.14850276 315.09121762 351.91189324 316.89990234 329.2623291 C316.96342896 328.47321136 317.02695557 327.68409363 317.09240723 326.87106323 C318.82655997 308.42260105 318.82655997 308.42260105 317.08740234 290.1373291 C280.75109402 290.02046227 244.42547474 290.10918617 208.09201813 290.60174179 C179.71725582 290.98574522 151.34658088 291.24873508 122.96900177 291.26071167 C120.48443699 291.26231488 117.99988173 291.26585736 115.51531982 291.26989746 C111.63995119 291.27572844 107.764622 291.27599613 103.88925171 291.27164841 C102.48068258 291.27066279 101.07211133 291.27121312 99.6635437 291.27348709 C79.4137082 291.30048203 79.4137082 291.30048203 75.08740234 289.1373291 C76.08740234 286.1373291 76.08740234 286.1373291 79.26318359 284.4107666 C80.6395138 283.77237073 82.01861595 283.13992929 83.39990234 282.5123291 C91.09558348 278.84363727 97.45115431 274.52163247 104.08740234 269.1373291 C105.00650391 268.42061035 105.92560547 267.7038916 106.87255859 266.9654541 C111.20662479 263.56969089 115.29679044 260.1445474 119.08740234 256.1373291 C120.71576973 254.4332237 122.37509986 252.75707469 124.08740234 251.1373291 C124.74740234 251.1373291 125.40740234 251.1373291 126.08740234 251.1373291 C126.08740234 250.1473291 126.08740234 249.1573291 126.08740234 248.1373291 C127.74955502 246.79837278 129.41703842 245.46602768 131.08740234 244.1373291 C132.4295721 242.14324833 133.76461365 240.14431885 135.08740234 238.1373291 C135.74740234 238.1373291 136.40740234 238.1373291 137.08740234 238.1373291 C137.08740234 237.4773291 137.08740234 236.8173291 137.08740234 236.1373291 C143.86469215 231.6191359 152.27848947 231.78391506 160.19287109 231.53967285 C161.23453934 231.50048233 162.27620758 231.46129181 163.34944153 231.4209137 C166.65770049 231.29776684 169.96621313 231.18575514 173.27490234 231.0748291 C177.62269166 230.9208429 181.97030175 230.76223842 186.31787109 230.60217285 C187.36387985 230.56446777 188.40988861 230.5267627 189.4875946 230.48791504 C195.9649475 230.24586405 202.40560007 229.85696099 208.86743164 229.3494873 C214.49245319 228.97886453 220.12635942 228.91543896 225.76119995 228.80630493 C240.21323632 228.5091433 254.60872242 227.74988786 269.02490234 226.6998291 C270.32785751 226.60753021 270.32785751 226.60753021 271.65713501 226.5133667 C281.22751071 225.82820306 290.65521103 224.9832444 300.08740234 223.1373291 C300.08740234 222.4773291 300.08740234 221.8173291 300.08740234 221.1373291 C301.75406901 220.1373291 303.42073568 219.1373291 305.08740234 218.1373291 C308.92330645 214.69288215 308.92330645 214.69288215 311.08740234 210.1373291 C311.74740234 210.1373291 312.40740234 210.1373291 313.08740234 210.1373291 C313.21147461 209.41609863 313.33554687 208.69486816 313.46337891 207.95178223 C314.08238069 205.15997762 314.98908913 202.74819889 316.07177734 200.1060791 C318.34636054 193.96922896 318.95465549 188.13605168 319.33740234 181.6373291 C319.41474609 180.58674316 319.49208984 179.53615723 319.57177734 178.45373535 C321.77917478 146.5647259 319.45199772 116.89255266 299.08740234 91.1373291 C298.42740234 90.8073291 297.76740234 90.4773291 297.08740234 90.1373291 C297.08740234 89.4773291 297.08740234 88.8173291 297.08740234 88.1373291 C296.25208984 87.7660791 296.25208984 87.7660791 295.39990234 87.3873291 C293.08740234 86.1373291 293.08740234 86.1373291 290.89990234 84.3248291 C274.02813145 71.20234063 254.40544037 69.20336049 233.71484375 71.38781738 C230.05666339 71.97064001 226.57898632 72.91330047 223.08740234 74.1373291 C222.40291016 74.36549316 221.71841797 74.59365723 221.01318359 74.82873535 C217.76652433 76.06119819 215.06351134 77.80037881 212.27490234 79.8248291 C209.08740234 82.1373291 209.08740234 82.1373291 207.08740234 82.1373291 C206.75740234 83.1273291 206.42740234 84.1173291 206.08740234 85.1373291 C205.42740234 85.1373291 204.76740234 85.1373291 204.08740234 85.1373291 C203.75740234 86.1273291 203.42740234 87.1173291 203.08740234 88.1373291 C202.42740234 88.1373291 201.76740234 88.1373291 201.08740234 88.1373291 C200.82958984 88.85275879 200.57177734 89.56818848 200.30615234 90.30529785 C199.01355469 93.30893021 197.45963145 95.77238282 195.58740234 98.4498291 C194.97896484 99.33283691 194.37052734 100.21584473 193.74365234 101.12561035 C193.19708984 101.78947754 192.65052734 102.45334473 192.08740234 103.1373291 C191.42740234 103.1373291 190.76740234 103.1373291 190.08740234 103.1373291 C189.99072266 103.68646973 189.89404297 104.23561035 189.79443359 104.8013916 C188.90081166 107.75379997 187.45345093 109.91978821 185.77490234 112.5123291 C177.74261604 125.21702776 170.72896701 138.60401668 164.09741211 152.08532715 C160.88112722 158.61320039 157.48478363 165.04359712 154.09204102 171.4810791 C151.43982451 176.52357623 148.85140717 181.58707772 146.33740234 186.6998291 C143.70943602 192.0122097 140.81516176 197.1003508 137.77880859 202.18811035 C136.03907666 205.22159213 134.49000288 208.30476916 132.96240234 211.4498291 C131.0196839 215.41771557 128.96390643 218.93356659 126.29443359 222.4420166 C124.92193246 224.36973664 123.82829072 226.36344497 122.71240234 228.4498291 C119.92116115 233.58925734 116.82500657 238.62772602 113.08740234 243.1373291 C112.42740234 243.1373291 111.76740234 243.1373291 111.08740234 243.1373291 C110.87470703 243.8385791 110.66201172 244.5398291 110.44287109 245.2623291 C108.72730747 248.90110383 106.25224126 251.37992299 103.39990234 254.1373291 C102.59286865 254.92961914 102.59286865 254.92961914 101.76953125 255.73791504 C92.05758229 265.1373291 92.05758229 265.1373291 88.08740234 265.1373291 C88.08740234 265.7973291 88.08740234 266.4573291 88.08740234 267.1373291 C85.67589736 268.39816673 83.25883134 269.64579642 80.83740234 270.8873291 C80.17482422 271.23537598 79.51224609 271.58342285 78.82958984 271.9420166 C67.38726083 277.77112761 56.80934937 279.80050578 44.05224609 279.8795166 C42.52307357 279.89751962 40.99390388 279.91576411 39.46473694 279.93423462 C36.27352442 279.96699505 33.08272575 279.98257287 29.89135742 279.98840332 C26.65824713 279.99699943 23.42833817 280.03857703 20.19604492 280.1114502 C-13.46234944 280.85693758 -13.46234944 280.85693758 -27.97801208 270.46742249 C-31.45755037 268.07512156 -35.20352953 266.14624326 -38.91259766 264.1373291 C-40.44271831 263.25745288 -41.96697074 262.36689213 -43.47509766 261.4498291 C-44.13638672 261.05408691 -44.79767578 260.65834473 -45.47900391 260.25061035 C-46.18863281 259.69953613 -46.18863281 259.69953613 -46.91259766 259.1373291 C-46.91259766 258.4773291 -46.91259766 257.8173291 -46.91259766 257.1373291 C-47.48494141 256.8795166 -48.05728516 256.6217041 -48.64697266 256.3560791 C-51.12388761 255.02366968 -53.04671426 253.48676792 -55.16259766 251.6373291 C-55.86900391 251.0288916 -56.57541016 250.4204541 -57.30322266 249.7935791 C-58.91259766 248.1373291 -58.91259766 248.1373291 -58.91259766 246.1373291 C-59.90259766 245.8073291 -60.89259766 245.4773291 -61.91259766 245.1373291 C-61.91259766 244.4773291 -61.91259766 243.8173291 -61.91259766 243.1373291 C-62.57259766 243.1373291 -63.23259766 243.1373291 -63.91259766 243.1373291 C-67.91259766 238.66674087 -67.91259766 238.66674087 -67.91259766 236.1373291 C-68.57259766 236.1373291 -69.23259766 236.1373291 -69.91259766 236.1373291 C-71.63280752 233.66789891 -73.22622513 231.20471716 -74.78759766 228.6373291 C-75.22201172 227.94123535 -75.65642578 227.2451416 -76.10400391 226.5279541 C-95.10382433 195.71743449 -97.27926433 163.45534593 -97.17333984 128.28991699 C-97.16187559 124.44887914 -97.16857881 120.60811885 -97.18048477 116.7670908 C-97.18777173 113.75815298 -97.1853856 110.7492792 -97.18022919 107.74033928 C-97.17891523 106.32483828 -97.18045913 104.90933106 -97.18518829 103.49383736 C-97.21601831 91.69671021 -96.00051788 80.52403491 -92.91259766 69.1373291 C-92.62384766 67.9410791 -92.33509766 66.7448291 -92.03759766 65.5123291 C-90.79809937 60.53481628 -89.33304004 55.62183843 -87.90478516 50.69592285 C-87.04841862 47.62446649 -86.30630733 44.55802354 -85.60009766 41.4498291 C-84.25424449 35.95549446 -82.41760176 30.69302044 -80.47509766 25.3873291 C-80.18658936 24.5949585 -79.89808105 23.80258789 -79.60083008 22.98620605 C-73.88631523 7.69255767 -73.88631523 7.69255767 -66.91259766 4.1373291 C-60.74876819 1.99290304 -54.66089488 1.48273251 -48.17431641 1.0201416 C-46.42087166 0.89338547 -46.42087166 0.89338547 -44.63200378 0.7640686 C-29.76456196 -0.20136466 -14.89117693 -0.08966695 0 0 Z " fill="#050505" transform="translate(96.91259765625,-0.1373291015625)"/>
<path d="M0 0 C2.16101237 0.01070892 4.32119063 0.00005243 6.48217773 -0.01269531 C17.74305742 -0.0259832 28.43111632 0.89539086 38.98022461 5.07324219 C39.65770752 5.33387451 40.33519043 5.59450684 41.03320312 5.86303711 C46.22871583 7.92161289 51.71140274 10.24192032 55.73022461 14.26074219 C55.98022461 17.69824219 55.98022461 17.69824219 55.73022461 21.26074219 C51.89480004 23.8176919 50.07119928 23.30119858 45.54272461 22.88574219 C43.63426758 22.71945312 43.63426758 22.71945312 41.68725586 22.54980469 C40.71143555 22.45441406 39.73561523 22.35902344 38.73022461 22.26074219 C38.60067383 23.18693359 38.60067383 23.18693359 38.46850586 24.13183594 C37.38210502 30.68014191 35.27148859 35.66500444 31.73022461 41.26074219 C31.07022461 41.26074219 30.41022461 41.26074219 29.73022461 41.26074219 C29.40022461 42.25074219 29.07022461 43.24074219 28.73022461 44.26074219 C23.43718912 47.98017253 19.15498683 48.68203807 12.73022461 48.26074219 C6.33907359 47.12956502 2.25230934 44.7359804 -1.76196289 39.62011719 C-6.94472039 31.51031011 -7.86433722 23.72418465 -7.26977539 14.26074219 C-8.16901733 14.4425 -8.16901733 14.4425 -9.08642578 14.62792969 C-11.83370299 15.17913414 -14.5829196 15.7200051 -17.33227539 16.26074219 C-18.74669922 16.54691406 -18.74669922 16.54691406 -20.18969727 16.83886719 C-25.29493664 17.83501146 -30.06591499 18.66157074 -35.26977539 18.26074219 C-37.26977539 16.63574219 -37.26977539 16.63574219 -38.26977539 14.26074219 C-38.39477539 11.26074219 -38.39477539 11.26074219 -37.26977539 8.26074219 C-26.0123625 0.46714864 -13.27237999 -0.07806399 0 0 Z " fill="#0E0E0E" transform="translate(307.269775390625,370.7392578125)"/>
<path d="M0 0 C1.20269531 -0.01224609 2.40539062 -0.02449219 3.64453125 -0.03710938 C15.82464733 -0.0569467 34.76431905 1.05684033 44.125 10.125 C45.125 12.1875 45.125 12.1875 44.9375 14.25 C44.125 16.1875 44.125 16.1875 42.125 19.1875 C39.49802936 19.40887393 37.11606036 19.46912025 34.5 19.375 C33.79359375 19.36146484 33.0871875 19.34792969 32.359375 19.33398438 C30.61425872 19.2986104 28.86953392 19.24480221 27.125 19.1875 C26.96064453 20.04021484 26.96064453 20.04021484 26.79296875 20.91015625 C25.74561834 26.01066758 24.33228247 30.471942 22.125 35.1875 C21.465 35.1875 20.805 35.1875 20.125 35.1875 C19.856875 35.826875 19.58875 36.46625 19.3125 37.125 C18.125 39.1875 18.125 39.1875 15.125 40.1875 C15.125 40.8475 15.125 41.5075 15.125 42.1875 C8.1899096 45.10753806 2.97879985 46.3784894 -4.3125 43.6875 C-5.488125 43.1925 -6.66375 42.6975 -7.875 42.1875 C-7.875 41.5275 -7.875 40.8675 -7.875 40.1875 C-8.865 40.1875 -9.855 40.1875 -10.875 40.1875 C-15.3238711 35.10404031 -16.79876748 30.85605635 -17.6875 24.25 C-17.80802734 23.47076172 -17.92855469 22.69152344 -18.05273438 21.88867188 C-18.34381748 19.99081 -18.61185243 18.08943649 -18.875 16.1875 C-20.48568359 16.52974609 -20.48568359 16.52974609 -22.12890625 16.87890625 C-23.56498173 17.16987579 -25.00118676 17.4602064 -26.4375 17.75 C-27.14197266 17.90146484 -27.84644531 18.05292969 -28.57226562 18.20898438 C-33.85066503 19.25493449 -38.88902767 19.68048616 -43.875 17.1875 C-43.875 14.2175 -43.875 11.2475 -43.875 8.1875 C-30.3631235 0.50427611 -15.177022 0.00808148 0 0 Z " fill="#0E0E0E" transform="translate(164.875,371.8125)"/>
<path d="M0 0 C0.99 0.33 1.98 0.66 3 1 C2.67 1.66 2.34 2.32 2 3 C1.67 3 1.34 3 1 3 C0.67 13.89 0.34 24.78 0 36 C-0.33 36 -0.66 36 -1 36 C-1.02465098 31.03377651 -1.04283649 26.06758834 -1.05493164 21.10131836 C-1.0599719 19.41055684 -1.06680405 17.71979971 -1.07543945 16.02905273 C-1.08751857 13.60399293 -1.09323123 11.17899056 -1.09765625 8.75390625 C-1.10281754 7.99348526 -1.10797882 7.23306427 -1.11329651 6.44960022 C-1.11349238 4.6326743 -1.06197277 2.81586873 -1 1 C-0.67 0.67 -0.34 0.34 0 0 Z " fill="#E4E4E4" transform="translate(6,245)"/>
<path d="M0 0 C0.66 0.33 1.32 0.66 2 1 C0.625 3 0.625 3 -1 5 C-1.66 5 -2.32 5 -3 5 C-3.433125 5.928125 -3.433125 5.928125 -3.875 6.875 C-5 9 -5 9 -7 11 C-7.99 10.34 -8.98 9.68 -10 9 C-9.36191406 8.51789063 -8.72382813 8.03578125 -8.06640625 7.5390625 C-7.24011719 6.90742188 -6.41382813 6.27578125 -5.5625 5.625 C-4.73878906 4.99851562 -3.91507813 4.37203125 -3.06640625 3.7265625 C-0.91471908 2.16246096 -0.91471908 2.16246096 0 0 Z " fill="#4A4A4A" transform="translate(212,259)"/>
<path d="M0 0 C0.99 0.33 1.98 0.66 3 1 C2.67 1.66 2.34 2.32 2 3 C1.67 3 1.34 3 1 3 C0.67 6.3 0.34 9.6 0 13 C-0.33 13 -0.66 13 -1 13 C-1.02686553 11.02090602 -1.04633375 9.04171029 -1.0625 7.0625 C-1.07410156 5.96035156 -1.08570313 4.85820312 -1.09765625 3.72265625 C-1 1 -1 1 0 0 Z " fill="#C1C1C1" transform="translate(6,245)"/>
<path d="M0 0 C0.66 0.33 1.32 0.66 2 1 C0.02 3.97 0.02 3.97 -2 7 C-3.32 6.34 -4.64 5.68 -6 5 C-5.195625 4.731875 -4.39125 4.46375 -3.5625 4.1875 C-2.716875 3.795625 -1.87125 3.40375 -1 3 C-0.67 2.01 -0.34 1.02 0 0 Z " fill="#6C6C6C" transform="translate(356,455)"/>
</svg>
